<?xml version="1.0" encoding="UTF-8" standalone="no"?>
<svg
   xmlns:dc="http://purl.org/dc/elements/1.1/"
   xmlns:cc="http://creativecommons.org/ns#"
   xmlns:rdf="http://www.w3.org/1999/02/22-rdf-syntax-ns#"
   xmlns:svg="http://www.w3.org/2000/svg"
   xmlns="http://www.w3.org/2000/svg"
   xmlns:sodipodi="http://sodipodi.sourceforge.net/DTD/sodipodi-0.dtd"
   xmlns:inkscape="http://www.inkscape.org/namespaces/inkscape"
   width="48"
   height="48"
   viewBox="0 0 48 48"
   id="svg3001"
   version="1.1"
   inkscape:version="0.48.5 r10040"
   sodipodi:docname="ic_gps_fixed_48px.svg"
   inkscape:export-filename="/Users/george/Development/Git/taplog.github.io/art/ic_gps_fixed_48px.png"
   inkscape:export-xdpi="180"
   inkscape:export-ydpi="180">
  <metadata
     id="metadata3011">
    <rdf:RDF>
      <cc:Work
         rdf:about="">
        <dc:format>image/svg+xml</dc:format>
        <dc:type
           rdf:resource="http://purl.org/dc/dcmitype/StillImage" />
        <dc:title />
      </cc:Work>
    </rdf:RDF>
  </metadata>
  <defs
     id="defs3009" />
  <sodipodi:namedview
     pagecolor="#ffffff"
     bordercolor="#666666"
     borderopacity="1"
     objecttolerance="10"
     gridtolerance="10"
     guidetolerance="10"
     inkscape:pageopacity="0"
     inkscape:pageshadow="2"
     inkscape:window-width="721"
     inkscape:window-height="484"
     id="namedview3007"
     showgrid="false"
     inkscape:zoom="4.9166667"
     inkscape:cx="24"
     inkscape:cy="24"
     inkscape:window-x="0"
     inkscape:window-y="0"
     inkscape:window-maximized="0"
     inkscape:current-layer="svg3001" />
  <path
     d="M0 0h48v48h-48z"
     fill="none"
     id="path3003" />
  <path
     d="M24 16c-4.42 0-8 3.58-8 8s3.58 8 8 8 8-3.58 8-8-3.58-8-8-8zm17.88 6c-.92-8.34-7.54-14.96-15.88-15.88v-4.12h-4v4.12c-8.34.92-14.96 7.54-15.88 15.88h-4.12v4h4.12c.92 8.34 7.54 14.96 15.88 15.88v4.12h4v-4.12c8.34-.92 14.96-7.54 15.88-15.88h4.12v-4h-4.12zm-17.88 16c-7.73 0-14-6.27-14-14s6.27-14 14-14 14 6.27 14 14-6.27 14-14 14z"
     id="path3005"
     style="fill:#000000;opacity:0.54" />
</svg>
