<?xml version="1.0" encoding="UTF-8" standalone="no"?>
<!-- Created with Inkscape (http://www.inkscape.org/) -->

<svg
   xmlns:dc="http://purl.org/dc/elements/1.1/"
   xmlns:cc="http://creativecommons.org/ns#"
   xmlns:rdf="http://www.w3.org/1999/02/22-rdf-syntax-ns#"
   xmlns:svg="http://www.w3.org/2000/svg"
   xmlns="http://www.w3.org/2000/svg"
   xmlns:sodipodi="http://sodipodi.sourceforge.net/DTD/sodipodi-0.dtd"
   xmlns:inkscape="http://www.inkscape.org/namespaces/inkscape"
   width="778"
   height="778"
   id="svg2"
   version="1.1"
   inkscape:version="0.48.5 r10040"
   inkscape:export-filename="/Users/george/Development/Git/taplog.github.io/art/logo_splash.png"
   inkscape:export-xdpi="90"
   inkscape:export-ydpi="90"
   sodipodi:docname="Launcher_Waterbear_Cutout_Stencil.svg">
  <defs
     id="defs4" />
  <sodipodi:namedview
     id="base"
     pagecolor="#ffffff"
     bordercolor="#666666"
     borderopacity="1.0"
     inkscape:pageopacity="0.0"
     inkscape:pageshadow="2"
     inkscape:zoom="0.50462687"
     inkscape:cx="386.8212"
     inkscape:cy="482.7628"
     inkscape:document-units="px"
     inkscape:current-layer="layer1"
     showgrid="false"
     inkscape:window-width="1228"
     inkscape:window-height="732"
     inkscape:window-x="59"
     inkscape:window-y="13"
     inkscape:window-maximized="0" />
  <metadata
     id="metadata7">
    <rdf:RDF>
      <cc:Work
         rdf:about="">
        <dc:format>image/svg+xml</dc:format>
        <dc:type
           rdf:resource="http://purl.org/dc/dcmitype/StillImage" />
        <dc:title></dc:title>
      </cc:Work>
    </rdf:RDF>
  </metadata>
  <g
     inkscape:groupmode="layer"
     id="layer2"
     inkscape:label="Layer"
     style="display:none"
     sodipodi:insensitive="true">
    <path
       style="fill:#ffffcc;fill-opacity:1;stroke:#001900;stroke-width:1.05499995;stroke-miterlimit:4;stroke-opacity:0"
       d="m -51.52322,-20.609882 856.07806,0 0,836.261472 -856.07806,0 z"
       id="rect3970"
       inkscape:connector-curvature="0" />
  </g>
  <g
     inkscape:label="Background"
     inkscape:groupmode="layer"
     id="layer1"
     transform="translate(0,-274.36218)"
     style="display:inline">
    <path
       style="fill:#ffffff;fill-opacity:1;display:inline;opacity:0.11"
       d="m -85.486542,208.76561 0,432.59657 0,432.59662 451.986542,0 451.98654,0 0,-207.12373 0,-207.12368 -0.67684,0.0347 0,413.55231 -902.619402,0 0,-863.87255 902.619402,0 0,418.24387 0.67684,0.48659 0,-209.69535 0,-209.69535 -451.98654,0 -451.986542,0 z M 817.8097,627.66977 814.03365,625.0286 c -2.45806,-1.71548 -12.33281,-9.18456 -21.94386,-16.57684 -9.61106,-7.3924 -18.61513,-14.02314 -19.98459,-14.73498 l -2.49362,-1.28583 -5.02287,0 -5.05848,0 -3.8473,2.53692 -3.88293,2.53691 -1.67429,3.30147 -1.70991,3.30147 0.0712,5.00433 0.0356,5.00433 2.03052,2.9887 1.99489,2.98869 23.47566,18.03645 c 12.91736,9.9079 25.20728,18.99393 27.28733,20.19108 l 3.77606,2.15464 5.6997,-0.38227 5.02287,-0.34753 0,-32.07637 z M 442.87604,334.42991 c -0.31349,0 -0.56997,0.25022 -0.56997,0.55604 0,0.30582 0.25648,0.55603 0.56997,0.55603 0.31348,0 0.56997,-0.25021 0.56997,-0.55603 0,-0.30582 -0.25649,-0.55604 -0.56997,-0.55604 z m 12.85995,0 -6.55466,1.66811 -6.55466,1.63336 -5.55721,3.02345 -5.59283,3.02345 -5.87782,5.83838 -5.91345,5.83839 -3.09921,5.59512 -3.13484,5.59512 -4.09666,0.69504 c -2.25738,0.37827 -8.12039,1.66066 -13.03807,2.84969 l -8.94141,2.15464 -8.15771,3.68375 -8.1577,3.68374 -9.29764,6.81145 -9.26202,6.8462 -5.73533,6.08165 c -3.14628,3.35838 -8.09225,9.57091 -10.97193,13.79666 -2.87966,4.22575 -6.5734,10.63332 -8.22894,14.21369 -1.65555,3.58039 -3.23396,6.72934 -3.49107,7.01997 -0.25712,0.29063 -4.40408,1.08142 -9.2264,1.73761 l -8.76329,1.18158 -6.83965,-4.90007 c -3.76179,-2.69327 -8.84564,-5.90528 -11.29254,-7.12422 -2.44689,-1.21895 -6.55068,-2.94949 -9.11953,-3.85751 -2.56883,-0.90802 -7.48798,-2.38888 -10.9363,-3.30147 l -6.26968,-1.66811 -8.26457,-0.62554 -8.26457,-0.62554 -3.63356,-2.64117 -3.63356,-2.60643 -2.10177,0 -2.10176,0 -2.31551,-3.788 c -1.26169,-2.08611 -2.92402,-4.05175 -3.70481,-4.34403 -0.78078,-0.2923 -5.61104,-0.58693 -10.75819,-0.6603 l -9.36889,-0.13901 -4.27477,-1.56385 c -2.35048,-0.86358 -6.17435,-1.8788 -8.51394,-2.2589 l -4.27478,-0.69504 -9.97448,2.36315 c -5.49749,1.29363 -11.43436,2.54546 -13.18056,2.78019 l -3.17046,0.41702 -3.66919,2.46742 c -2.0156,1.34341 -6.38412,5.20782 -9.6895,8.61856 l -5.98469,6.22067 -2.27988,4.72631 c -1.24013,2.61187 -3.28151,6.97245 -4.55976,9.66114 l -2.31551,4.86532 -1.21118,7.08947 -1.17557,7.05471 0.74809,7.22848 0.74809,7.22848 2.74298,5.97739 c 1.51935,3.28503 2.7786,6.73734 2.7786,7.68026 l 0,1.70286 3.56232,5.42136 3.56231,5.42136 -0.74808,5.52561 -0.74809,5.49086 1.74554,3.33622 1.78115,3.33622 0.1425,13.06687 0.14249,13.10161 1.56742,3.82275 1.60304,3.82276 -0.74809,8.41005 -0.71246,8.41006 -1.49617,3.02345 -1.46055,3.0582 -0.78371,8.61857 -0.78371,8.65332 -3.24171,13.34488 c -1.79397,7.33969 -4.63696,19.01685 -6.30529,25.95997 l -3.02797,12.64983 0.67684,4.23978 0.71246,4.27453 -1.06869,2.71068 -1.0687,2.74543 -3.49107,1.49435 -3.49107,1.5291 0,7.40224 0,7.43699 -0.96182,0.34753 c -0.53327,0.20384 -2.26474,2.39941 -3.8473,4.86532 -1.58256,2.46591 -4.1924,7.97067 -5.77095,12.23281 -1.57857,4.26213 -3.75638,9.62638 -4.88037,11.92003 -1.124,2.29365 -2.46565,4.17028 -2.95673,4.17028 -0.49106,0 -3.08657,2.80537 -5.77095,6.22066 -2.68439,3.41519 -5.66677,7.54375 -6.6259,9.1746 -0.95914,1.63075 -3.35663,4.51964 -5.34347,6.42918 l -3.63357,3.47523 -0.67684,3.19721 c -0.38493,1.7603 -0.92181,4.20558 -1.17556,5.45611 l -0.4631,2.29365 -7.33837,5.73413 -7.338369,5.73413 -5.30785,6.70719 -5.272226,6.70719 -2.244259,6.42918 c -1.226679,3.5236 -3.451626,8.64637 -4.951618,11.39875 l -2.742982,5.00433 -1.318057,6.32492 -1.318056,6.32492 0.783709,4.23978 c 0.424434,2.33324 1.993734,9.49432 3.491069,15.91655 l 2.707359,11.67677 2.493621,5.56037 c 1.370801,3.0582 4.431497,8.06253 6.768398,11.12073 2.336902,3.0582 5.557178,8.10429 7.160254,11.22499 l 2.921098,5.69938 7.12463,3.40572 7.160249,3.44048 5.12974,1.11207 c 2.82135,0.62455 11.67694,1.99101 19.6996,3.02345 l 14.60549,1.87663 3.06359,-1.35534 c 1.68446,-0.74876 8.95194,-3.26166 16.17291,-5.59512 l 13.14495,-4.27453 13.67929,-2.81494 13.67929,-2.84969 13.67929,-1.35534 13.67929,-1.32058 4.55976,-1.59861 c 2.50786,-0.86597 7.38113,-2.01775 10.82944,-2.57167 3.44832,-0.55392 8.79448,-1.50113 11.86251,-2.11989 3.06801,-0.61887 6.14402,-1.59138 6.83964,-2.15464 l 1.24681,-1.04257 2.84986,1.49435 2.84985,1.49435 5.37909,-0.62554 5.41472,-0.62555 1.81678,1.49435 1.85241,1.49435 13.8574,1.32059 13.85741,1.32059 6.26967,2.22414 c 3.44831,1.22651 9.78689,3.54218 14.07115,5.14334 l 7.76585,2.9192 9.68949,1.49434 9.6895,1.52911 1.28243,1.25108 1.28244,1.25108 4.66663,0 4.70226,0 2.49362,3.30147 2.52924,3.30147 8.1577,5.21284 8.19333,5.21285 5.05848,5.3866 5.09411,5.35185 6.7684,4.76107 c 3.73086,2.60859 9.16351,6.60293 12.07625,8.89659 2.91275,2.29365 5.64861,4.17027 6.05594,4.17027 0.40731,0 5.20765,5.12944 10.68694,11.39875 5.47929,6.26932 12.6047,14.11105 15.81668,17.4109 l 5.8422,5.9774 6.83964,3.09295 c 3.76573,1.68702 8.89154,3.92323 11.39941,4.96958 2.50787,1.04635 9.946,3.31153 16.52914,5.07384 l 11.96938,3.23196 5.73533,-0.45178 5.73533,-0.45178 11.93375,-3.89226 c 6.56262,-2.14285 15.39633,-5.43576 19.62836,-7.33273 l 7.6946,-3.47523 0,-0.97306 c 0,-0.54548 1.5684,-1.97477 3.49107,-3.16246 l 3.49107,-2.15465 6.37654,-8.23629 c 3.49946,-4.53014 7.03756,-9.80704 7.87272,-11.74628 0.83515,-1.93923 3.03241,-5.73885 4.88037,-8.41005 1.84798,-2.6712 3.68519,-6.15038 4.09666,-7.74976 l 0.74809,-2.9192 -1.42493,-12.05904 c -0.78111,-6.63463 -1.50666,-16.06251 -1.63866,-20.95564 l -0.24937,-8.89658 -1.88802,-9.8349 -1.92365,-9.80015 2.3155,-3.8575 2.31551,-3.82276 1.13994,-6.9157 1.13994,-6.91571 0.0356,-8.65332 0,-8.68808 -1.63866,-7.99302 c -0.89728,-4.4086 -1.9902,-10.78017 -2.42232,-14.14419 l -0.78371,-6.1164 -2.13739,-3.89226 c -1.1869,-2.14074 -3.97429,-6.35839 -6.19842,-9.38312 l -4.06104,-5.52561 0.67684,-2.53692 0.64121,-2.57167 -1.42492,-2.50217 -1.46055,-2.50216 0,-16.92437 0,-16.92437 3.56231,-3.19721 3.56232,-3.16246 0.85495,-2.64117 c 0.47221,-1.45137 3.10429,-6.16839 5.8422,-10.46044 l 4.98724,-7.78452 0,-2.43266 0,-2.43266 7.76585,-2.29365 7.80147,-2.29365 5.30785,-3.96176 5.30785,-3.96176 7.16025,-3.23197 7.12463,-3.23196 5.87782,-5.35185 5.8422,-5.35186 3.09921,-5.3171 c 1.70836,-2.93209 4.73516,-6.87139 6.69715,-8.75758 l 3.56232,-3.44047 3.41982,-6.18591 3.41983,-6.15116 7.26712,-1.42484 7.26712,-1.4596 6.98214,-3.23196 6.98214,-3.26672 7.12463,-5.14334 7.089,-5.10858 5.27223,-6.39443 5.2366,-6.39442 3.8473,-7.78451 3.8473,-7.78452 1.78116,-6.67244 1.81678,-6.67244 0.10681,-10.5647 0.0712,-10.56469 -2.42237,-8.68808 c -1.34796,-4.78499 -3.55839,-10.79019 -4.88038,-13.34488 -1.32198,-2.5547 -4.2155,-7.08882 -6.44779,-10.07816 -2.23231,-2.98935 -6.14408,-7.39112 -8.69204,-9.7654 -2.54798,-2.37428 -7.96534,-6.47987 -12.04063,-9.13985 l -7.40962,-4.86532 -6.26967,-2.22415 -6.26967,-2.22415 -8.47831,-1.39009 -8.47831,-1.39009 -8.19333,0.7298 -8.19332,0.72979 -8.05084,2.15465 -8.01521,2.18939 -6.09155,3.47523 -6.05588,3.50998 -5.12974,-1.98088 c -2.82135,-1.07674 -8.72054,-2.94096 -13.10932,-4.17027 l -7.97958,-2.22415 -20.12708,-0.13901 -20.12708,-0.1042 0.49872,-0.7993 c 0.27551,-0.4349 0.49439,-6.18988 0.49873,-12.78885 l 0.0356,-11.98954 -1.78116,-8.34055 c -0.97975,-4.5873 -2.85149,-11.43158 -4.13228,-15.22151 l -2.31545,-6.91576 -5.52159,-8.93134 -5.52159,-8.96609 2.20864,-5.62987 2.17301,-5.62987 0.71246,-8.02778 0.67684,-8.02778 -1.31805,-6.08166 -1.31806,-6.08165 -3.31295,-6.70719 -3.31295,-6.74194 -6.05594,-6.11641 -6.05594,-6.1164 -5.55721,-2.9887 c -3.05387,-1.65212 -8.15529,-3.77235 -11.32816,-4.69156 l -5.77095,-1.66811 -7.87272,0 -7.90834,0 z m 24.75809,0 c -0.31348,0 -0.56997,0.25022 -0.56997,0.55604 0,0.30582 0.25649,0.55603 0.56997,0.55603 0.31349,0 0.56997,-0.25021 0.56997,-0.55603 0,-0.30582 -0.25648,-0.55604 -0.56997,-0.55604 z m 15.95918,8.89659 c -0.31349,0 -0.56997,0.25021 -0.56997,0.55603 0,0.30582 0.25648,0.55604 0.56997,0.55604 0.31348,0 0.56997,-0.25022 0.56997,-0.55604 0,-0.30582 -0.25649,-0.55603 -0.56997,-0.55603 z m -30.13719,23.35354 3.74043,1.5291 3.77605,1.5291 3.5267,4.17028 c 1.93835,2.29408 3.75387,5.10949 4.06104,6.25541 l 0.56997,2.08514 -1.31806,-0.0347 c -0.72501,-0.0195 -2.344,-0.83944 -3.59794,-1.80712 -1.25393,-0.96769 -4.84475,-2.86527 -7.97958,-4.23978 -3.13483,-1.37452 -8.26631,-3.40709 -11.39941,-4.5178 l -5.69971,-2.01563 3.41983,-1.42484 3.41982,-1.42485 3.74043,-0.0695 3.74043,-0.0348 z m -104.37583,13.34488 c -0.31349,0 -0.56997,0.25022 -0.56997,0.55604 0,0.30582 0.25648,0.55603 0.56997,0.55603 0.31348,0 0.56997,-0.25021 0.56997,-0.55603 0,-0.30582 -0.25649,-0.55604 -0.56997,-0.55604 z m 205.1181,0 -2.38675,1.63336 -2.42237,1.66811 -0.74809,2.95394 -0.78371,2.9887 1.31806,2.88444 1.28243,2.88444 24.97183,20.57336 c 13.73422,11.31535 26.77378,21.88531 28.96162,23.49255 l 3.98979,2.9192 3.59794,-0.7298 3.63356,-0.69505 2.20864,-2.91919 2.24426,-2.88444 -0.74809,-3.30147 -0.74808,-3.30147 -13.21619,-11.01648 c -7.269,-6.05521 -13.80295,-11.53788 -14.49863,-12.1633 -0.69568,-0.62542 -7.8362,-6.50551 -15.88792,-13.06686 l -14.64112,-11.92004 -3.06359,0 -3.06359,0 z m -148.12106,7.33274 11.25691,0.1042 11.25692,0.1042 6.98214,1.42484 6.98214,1.42485 7.40961,4.48304 c 4.07529,2.47572 7.55064,4.82008 7.73022,5.21285 0.17959,0.39276 2.12137,2.65936 4.31041,5.03908 l 3.98979,4.34404 2.88547,5.56036 c 1.59154,3.0582 4.59294,7.88549 6.66153,10.73846 l 3.74043,5.21285 2.06615,7.43699 2.06614,7.43699 -1.21119,3.12771 -1.17556,3.1277 0.9262,4.79582 0.96183,4.83057 -0.0712,7.78451 c -0.0469,4.28148 -0.42329,9.10641 -0.81933,10.73846 l -0.71247,2.9887 -3.41982,-2.74543 c -1.88089,-1.49899 -8.54956,-6.11459 -14.81923,-10.28668 -6.26966,-4.17209 -16.27267,-10.12856 -22.22885,-13.24063 l -10.82943,-5.66462 -9.54701,-3.44048 c -5.24354,-1.88078 -13.9641,-4.61564 -19.37899,-6.08165 -5.41488,-1.46601 -13.93579,-3.42962 -18.95152,-4.37879 -5.01574,-0.94916 -14.21405,-2.27053 -20.44769,-2.91919 -6.23363,-0.64866 -11.49897,-1.31346 -11.68439,-1.49435 -0.18542,-0.18089 0.94745,-2.02154 2.49362,-4.06602 l 2.81423,-3.71849 -0.6056,-2.29366 -0.60559,-2.3284 4.45289,-7.22848 4.4529,-7.22847 8.37144,-5.69938 8.40706,-5.69938 4.02542,-1.39009 c 2.21339,-0.76115 4.79488,-2.01707 5.73533,-2.78018 l 1.70991,-1.39009 7.40961,-0.90356 7.40962,-0.93832 z m -14.81923,4.90007 c -0.31349,0 -0.56997,0.25022 -0.56997,0.55604 0,0.30582 0.25648,0.55603 0.56997,0.55603 0.31348,0 0.56997,-0.25021 0.56997,-0.55603 0,-0.30582 -0.25649,-0.55604 -0.56997,-0.55604 z m -240.52752,4.44829 c -0.31348,0 -0.56997,0.25022 -0.56997,0.55604 0,0.30582 0.25649,0.55604 0.56997,0.55604 0.31348,0 0.56997,-0.25022 0.56997,-0.55604 0,-0.30582 -0.25649,-0.55604 -0.56997,-0.55604 z m 56.99704,0 c -0.31348,0 -0.56997,0.25022 -0.56997,0.55604 0,0.30582 0.25649,0.55604 0.56997,0.55604 0.31349,0 0.56997,-0.25022 0.56997,-0.55604 0,-0.30582 -0.25648,-0.55604 -0.56997,-0.55604 z m 167.57131,5.56037 c -0.31349,0 -0.56997,0.25022 -0.56997,0.55604 0,0.30582 0.25648,0.55603 0.56997,0.55603 0.31348,0 0.56997,-0.25021 0.56997,-0.55603 0,-0.30582 -0.25649,-0.55604 -0.56997,-0.55604 z m 227.98816,10.00866 c -0.31348,0 -0.56997,0.25022 -0.56997,0.55604 0,0.30582 0.25649,0.55603 0.56997,0.55603 0.31349,0 0.56997,-0.25021 0.56997,-0.55603 0,-0.30582 -0.25648,-0.55604 -0.56997,-0.55604 z m -67.57711,2.22415 -2.38676,1.94613 -2.42237,1.94612 -0.71246,3.57949 -0.71247,3.54473 3.3842,3.12771 c 1.8435,1.70651 6.62203,5.57072 10.65133,8.61857 4.02929,3.04785 14.43463,11.21727 23.11942,18.1407 l 15.81668,12.58033 4.59539,-0.31277 4.63101,-0.34752 2.20863,-2.9192 2.24426,-2.91919 -0.78371,-3.47523 -0.78371,-3.47523 -25.57742,-20.01732 -25.57742,-20.01732 -3.8473,0 -3.8473,0 z m 73.27682,0 c -0.31349,0 -0.56997,0.25021 -0.56997,0.55603 0,0.30582 0.25648,0.55604 0.56997,0.55604 0.31348,0 0.56997,-0.25022 0.56997,-0.55604 0,-0.30582 -0.25649,-0.55603 -0.56997,-0.55603 z m -295.24468,1.11207 c -0.31348,0 -0.56997,0.25022 -0.56997,0.55604 0,0.30582 0.25649,0.55603 0.56997,0.55603 0.31348,0 0.56997,-0.25021 0.56997,-0.55603 0,-0.30582 -0.25649,-0.55604 -0.56997,-0.55604 z m -130.16699,11.12074 -7.08901,4.48304 -7.08901,4.4483 -7.33837,7.29798 -7.33837,7.29798 0,-1.04257 c 0,-0.58486 0.99281,-3.26543 2.20864,-5.94264 l 2.20863,-4.86532 3.77606,-3.54474 3.77605,-3.54473 5.12974,-2.2589 5.12973,-2.29365 3.31295,0 3.31296,-0.0347 z m -19.16526,8.89658 c -0.31348,0 -0.56997,0.25022 -0.56997,0.55604 0,0.30582 0.25649,0.55604 0.56997,0.55604 0.31348,0 0.56997,-0.25022 0.56997,-0.55604 0,-0.30582 -0.25649,-0.55604 -0.56997,-0.55604 z m 77.80096,3.09296 0.85496,1.35534 0.85495,1.35534 -1.31805,0.7993 -1.31806,0.7993 0.67684,1.73762 0.67684,1.73761 3.17046,-1.18158 3.20609,-1.14682 1.99489,0.7298 1.9949,0.76455 -1.28244,1.49434 -1.28243,1.52911 2.27988,0.59078 2.31551,0.59079 0,1.80712 0,1.80712 -2.56487,1.07732 c -1.41068,0.59505 -3.33433,1.56526 -4.27478,2.15465 -0.94045,0.58937 -5.81371,3.39493 -10.82944,6.25541 -5.01574,2.86049 -10.20423,6.15414 -11.5419,7.33273 -1.33766,1.17861 -5.44145,3.57332 -9.11952,5.28235 l -6.69716,3.09296 -2.27988,2.50216 c -1.25392,1.38399 -5.10123,4.63717 -8.54955,7.22848 -3.44831,2.59132 -7.30225,5.06208 -8.58518,5.45611 l -2.35113,0.69505 -7.16025,9.45262 -7.16026,9.41787 -3.06359,2.05039 -3.02797,2.01563 -3.06359,0.20851 -3.09921,0.17376 -0.74809,-1.18157 -0.71246,-1.14683 0.67684,-0.69504 0.67684,-0.6603 -1.92365,-2.05038 -1.88803,-2.05039 2.31551,-4.17027 c 1.28295,-2.28068 4.64153,-8.13899 7.44524,-13.03212 2.8037,-4.89312 5.94242,-10.6481 6.98213,-12.78884 l 1.88803,-3.89226 6.1628,-6.74194 6.16281,-6.70719 7.2315,-4.69156 c 3.97991,-2.56808 8.3127,-5.55529 9.65387,-6.67245 l 2.458,-2.05038 7.2315,-2.57167 c 3.98805,-1.4094 8.58732,-3.45269 10.18822,-4.55255 l 2.88548,-1.98088 6.94651,-0.76455 6.91089,-0.76455 z m 1.9949,9.13985 c -0.31348,0 -0.56997,0.25022 -0.56997,0.55604 0,0.30582 0.25649,0.55603 0.56997,0.55603 0.31348,0 0.56997,-0.25021 0.56997,-0.55603 0,-0.30582 -0.25649,-0.55604 -0.56997,-0.55604 z m 5.6997,2.22415 c -0.31348,0 -0.56997,0.25021 -0.56997,0.55603 0,0.30582 0.25649,0.55604 0.56997,0.55604 0.31349,0 0.56997,-0.25022 0.56997,-0.55604 0,-0.30582 -0.25648,-0.55603 -0.56997,-0.55603 z m -45.59763,6.67244 c -0.31348,0 -0.56997,0.25021 -0.56997,0.55603 0,0.30583 0.25649,0.55604 0.56997,0.55604 0.31348,0 0.56997,-0.25021 0.56997,-0.55604 0,-0.30582 -0.25649,-0.55603 -0.56997,-0.55603 z m 140.21272,7.47174 10.25947,1.77237 c 5.64271,0.97044 16.16124,2.35818 23.36879,3.0582 7.20756,0.70003 13.87624,1.64775 14.81923,2.11989 0.94301,0.47215 3.7618,1.22705 6.26967,1.66811 2.50786,0.44106 5.17749,1.28939 5.94907,1.91138 0.77159,0.62197 5.13187,2.98261 9.6895,5.24759 4.55763,2.26497 12.40399,6.30575 17.41972,8.9661 l 9.11952,4.83056 5.12974,4.58731 c 2.82135,2.52039 7.55255,6.28251 10.50883,8.34055 l 5.37909,3.71849 -2.20863,2.9887 c -1.20284,1.64795 -2.94764,3.62155 -3.88293,4.37879 -0.93527,0.75723 -3.26218,3.79446 -5.20098,6.74195 l -3.52669,5.35185 -6.05593,17.65416 c -3.32738,9.69706 -6.94877,19.25722 -8.01521,21.26841 l -1.92365,3.64899 0,10.52995 0,10.49519 1.92365,5.87314 c 1.05732,3.21856 2.34686,6.72248 2.88547,7.78451 l 0.99745,1.91138 0,5.62987 0,5.66462 2.42238,5.21285 c 1.33362,2.87182 4.62835,8.46566 7.30274,12.44132 2.67439,3.97566 6.16811,8.59794 7.80147,10.25193 l 2.99235,2.98869 8.26457,4.65681 c 4.54681,2.55421 10.46201,6.06397 13.14494,7.81927 2.68294,1.75529 5.38963,3.19721 6.02031,3.19721 0.6307,0 2.27312,0.74092 3.66919,1.63336 1.39606,0.89232 5.96751,2.64195 10.11697,3.89225 l 7.51649,2.2589 1.42492,1.66811 c 0.77885,0.91557 1.93392,1.66811 2.56487,1.66811 0.63096,0 3.12831,1.75152 5.55721,3.89226 l 4.41727,3.89226 2.84985,0 2.84986,0 0,2.29365 c 0,1.26354 0.56733,3.31403 1.24681,4.55255 l 1.21118,2.2589 -1.35368,3.23196 c -0.75553,1.77932 -1.77371,3.23196 -2.24425,3.23196 l -0.85496,0 0.14249,4.4483 0.10682,4.41354 -3.70481,3.30147 -3.66919,3.26671 -0.0356,1.4596 c -0.009,0.79902 -0.41191,2.09364 -0.9262,2.88444 l -0.96183,1.4596 -5.98469,-3.96176 -5.98469,-3.92701 -4.38165,0 -4.38164,0 -0.71247,-1.11208 -0.71246,-1.11207 -4.34602,0 -4.31041,0 -2.74298,-2.01563 c -1.49522,-1.1163 -5.59794,-3.62025 -9.11953,-5.56037 l -6.41216,-3.54474 -11.82689,-1.21633 -11.82688,-1.18157 -6.19843,0.66029 -6.19843,0.69505 -3.59794,2.18939 c -1.98592,1.19737 -6.91154,3.38749 -10.93631,4.86532 l -7.30274,2.67593 -5.69971,0.76455 -5.66408,0.7993 -12.75309,6.0469 -12.71746,6.08165 -3.09922,2.9887 c -1.69021,1.64331 -4.83679,5.74108 -7.01776,9.1051 -2.18099,3.36402 -5.92722,8.11814 -8.33581,10.5647 l -4.38165,4.44829 -3.02797,11.12074 -2.99234,11.12073 -2.70736,4.55255 c -1.48451,2.49538 -3.47631,5.15196 -4.4529,5.94264 l -1.78115,1.4596 0,4.62206 0,4.6568 -1.85241,6.60294 -1.8524,6.63769 -0.14249,15.36051 -0.1425,15.39527 -10.82944,-0.24327 c -5.95618,-0.12666 -12.11187,0.0684 -13.67929,0.41703 l -2.84985,0.62554 -7.97958,-1.66811 c -4.38876,-0.90689 -12.59636,-2.90329 -18.23906,-4.44829 l -10.25946,-2.81494 -8.54956,-5.17809 c -4.70225,-2.85714 -10.85795,-6.4185 -13.67929,-7.88877 -2.82135,-1.47016 -10.01015,-5.66312 -15.95917,-9.31362 l -10.79382,-6.63768 -4.63101,-4.58731 c -2.5425,-2.52763 -6.73829,-6.21371 -9.33326,-8.20154 l -4.73788,-3.61424 -2.38675,0 -2.42238,0 -2.81423,-2.95394 c -1.53748,-1.6184 -2.7786,-3.55597 -2.7786,-4.30929 0,-0.7532 -0.81171,-2.03598 -1.81678,-2.84969 l -1.85241,-1.45959 -5.02286,-9.93916 -5.02287,-9.9044 -3.27732,-3.64899 -3.27733,-3.68375 -1.17557,-3.68374 c -0.64705,-2.04032 -3.50654,-10.97477 -6.34092,-19.84356 -2.83439,-8.86879 -6.25661,-20.13264 -7.58773,-25.02165 l -2.38675,-8.89659 0.53435,-2.78018 0.56997,-2.78019 -0.99745,-5.56036 c -0.5483,-3.05821 -1.39242,-10.31449 -1.85241,-16.12507 -0.45999,-5.81058 -0.86423,-14.56816 -0.89058,-19.46128 l -0.0356,-8.89659 1.9949,-10.91222 c 1.0956,-6.00153 2.97403,-14.50889 4.20353,-18.90525 1.2295,-4.39636 3.52285,-11.49606 5.09411,-15.77754 1.57126,-4.28149 2.87225,-8.61296 2.88547,-9.62639 0.0132,-1.01332 1.5722,-5.1841 3.45545,-9.27886 1.88325,-4.09488 6.17608,-11.52336 9.547,-16.50734 l 6.12718,-9.07035 7.8371,-7.33273 c 4.30706,-4.02713 9.69864,-9.28168 11.96938,-11.67678 2.27075,-2.39509 6.63102,-6.62328 9.68949,-9.41787 3.05848,-2.79459 8.89155,-7.61498 12.96683,-10.7037 4.07529,-3.08873 11.23291,-7.99292 15.92355,-10.91223 l 8.54956,-5.3171 10.82943,-4.6568 c 5.96779,-2.56878 14.71238,-6.07205 19.41462,-7.74977 4.70226,-1.67773 11.11444,-4.07205 14.24926,-5.3171 3.13484,-1.24504 8.26457,-2.97219 11.39941,-3.8575 l 5.6997,-1.59861 17.66909,-0.0695 17.66908,-0.1042 z m -51.29733,6.98521 c -0.31349,0 -0.56997,0.25022 -0.56997,0.55604 0,0.30582 0.25648,0.55604 0.56997,0.55604 0.31348,0 0.56997,-0.25022 0.56997,-0.55604 0,-0.30582 -0.25649,-0.55604 -0.56997,-0.55604 z m 128.81331,14.45696 c -0.31348,0 -0.56997,0.25021 -0.56997,0.55603 0,0.30582 0.25649,0.55604 0.56997,0.55604 0.31348,0 0.56997,-0.25022 0.56997,-0.55604 0,-0.30582 -0.25649,-0.55603 -0.56997,-0.55603 z m 243.94734,0 c -0.31348,0 -0.56997,0.25021 -0.56997,0.55603 0,0.30582 0.25649,0.55604 0.56997,0.55604 0.31348,0 0.56997,-0.25022 0.56997,-0.55604 0,-0.30582 -0.25649,-0.55603 -0.56997,-0.55603 z m -492.45444,6.67244 c -0.31349,0 -0.56997,0.25021 -0.56997,0.55603 0,0.30583 0.25648,0.55604 0.56997,0.55604 0.31348,0 0.56997,-0.25021 0.56997,-0.55604 0,-0.30582 -0.25649,-0.55603 -0.56997,-0.55603 z m 11.39941,2.22415 c -0.31349,0 -0.56997,0.25021 -0.56997,0.55603 0,0.30582 0.25648,0.55604 0.56997,0.55604 0.31348,0 0.56997,-0.25022 0.56997,-0.55604 0,-0.30582 -0.25649,-0.55603 -0.56997,-0.55603 z m 430.0783,11.98954 6.09156,1.91137 c 3.36027,1.06407 6.60026,2.38274 7.19588,2.9192 0.59561,0.53645 1.7377,0.97306 2.52924,0.97306 0.79154,0 4.17324,1.00386 7.51648,2.22415 l 6.09156,2.22414 6.3053,5.49087 6.3053,5.49086 3.24171,7.01996 3.2417,7.01997 0.49873,7.95827 0.53434,7.95828 -1.99489,6.15115 -1.9949,6.15116 -2.13739,2.2589 c -1.18051,1.23607 -2.13638,2.6434 -2.13739,3.12771 -9.9e-4,0.4843 -3.98888,4.72408 -8.87016,9.45262 l -8.87017,8.61857 -6.80402,2.22415 -6.80402,2.18939 -4.55976,-0.0347 -4.55977,-0.0695 -5.12973,-1.87663 c -2.82134,-1.02599 -7.21012,-2.9456 -9.76074,-4.27453 l -4.63101,-2.39791 -4.16791,-4.48304 c -2.28121,-2.46324 -5.129,-6.4016 -6.34092,-8.72283 -1.21192,-2.32123 -3.03702,-6.95741 -4.06104,-10.32143 l -1.88803,-6.1164 -0.64122,-11.81578 -0.64121,-11.81578 4.70225,-8.09729 c 2.58538,-4.45094 6.26547,-10.03196 8.19333,-12.40657 l 3.52669,-4.30928 3.06359,-1.56386 3.09921,-1.5291 6.9109,-0.76455 6.94651,-0.76455 z m -292.71543,7.6455 -0.74809,0.76455 -0.78371,0.7298 1.5318,0 1.53179,0 -0.78371,-0.7298 -0.74808,-0.76455 z m 220.5073,0.59079 6.83965,1.07732 c 3.76642,0.59174 6.97387,1.17351 7.12463,1.32059 0.15077,0.14707 -1.00965,3.368 -2.56487,7.12422 l -2.81423,6.81145 -1.63866,10.70371 -1.67429,10.7037 0.60559,3.54474 c 0.32432,1.94512 1.66433,7.04776 2.99235,11.32925 1.32801,4.28148 3.69662,11.03732 5.2366,15.01299 l 2.77861,7.22847 3.77605,5.76888 3.81168,5.76889 2.27988,1.21633 c 1.27044,0.66324 4.7951,3.57131 7.80147,6.46392 l 5.45034,5.2476 6.98214,3.33622 6.98214,3.33622 -3.49107,4.72631 c -1.91741,2.6047 -5.81915,6.79455 -8.65643,9.31362 -2.83728,2.51895 -7.8408,6.32441 -11.11442,8.44481 l -5.94907,3.8575 -4.34602,1.04257 c -2.40299,0.58673 -7.65383,1.80284 -11.64877,2.67593 l -7.26712,1.56385 -9.83199,0.52128 -9.83199,0.52129 -4.55977,-0.79931 -4.55976,-0.83405 -6.83965,-3.12771 c -3.76179,-1.7276 -9.40451,-4.89829 -12.53935,-7.05471 -3.13483,-2.15642 -7.40061,-5.5036 -9.47575,-7.40224 -2.07514,-1.89876 -6.00738,-6.44308 -8.72768,-10.11292 l -4.95161,-6.67244 -2.9211,-7.05472 -2.9211,-7.05471 -1.17556,-6.22066 -1.17557,-6.22066 0.0356,-7.29799 0,-7.29798 1.60304,-7.40224 1.60304,-7.36748 2.38675,-4.55255 2.38675,-4.55255 2.81423,-1.80712 2.84985,-1.80712 0,-1.59861 c 0,-0.86753 1.24202,-3.99226 2.77861,-6.95046 l 2.81423,-5.3866 3.31295,-2.71068 c 1.82023,-1.49418 7.33949,-4.73432 12.28999,-7.22848 4.95049,-2.49417 10.67982,-4.89568 12.71746,-5.3171 l 3.70481,-0.76455 0,-0.97307 0,-0.97306 3.70481,-0.62554 c 2.03764,-0.33947 8.04995,-0.79808 13.35868,-1.04257 l 9.65388,-0.45178 z m -36.40686,12.02429 c -0.31348,0 -0.56997,0.25022 -0.56997,0.55604 0,0.30582 0.25649,0.55604 0.56997,0.55604 0.31349,0 0.56997,-0.25022 0.56997,-0.55604 0,-0.30582 -0.25648,-0.55604 -0.56997,-0.55604 z m -332.86272,35.58635 c -0.31349,0 -0.56997,0.25022 -0.56997,0.55604 0,0.30582 0.25648,0.55604 0.56997,0.55604 0.31348,0 0.56997,-0.25022 0.56997,-0.55604 0,-0.30582 -0.25649,-0.55604 -0.56997,-0.55604 z M 584.2287,606.8879 c -0.31348,0 -0.56997,0.25022 -0.56997,0.55604 0,0.30582 0.25649,0.55604 0.56997,0.55604 0.31348,0 0.56997,-0.25022 0.56997,-0.55604 0,-0.30582 -0.25649,-0.55604 -0.56997,-0.55604 z m 127.28152,3.33622 -2.38675,2.9192 -2.35113,2.95394 0,2.11989 c 0,1.18102 0.59956,3.25137 1.31806,4.5873 0.7185,1.33605 1.85966,2.75177 2.56486,3.16246 0.7052,0.41069 13.35035,10.09357 28.07105,21.51167 14.72069,11.41799 28.01075,21.8582 29.56721,23.17978 1.55649,1.32159 4.63433,3.75637 6.83965,5.42136 l 4.02541,3.02345 4.20353,0.0347 4.16791,0.0347 2.38675,-2.91919 2.35113,-2.95394 0,-2.36316 0,-2.39791 -1.60304,-2.18939 c -0.87259,-1.20649 -5.80753,-5.44221 -10.97193,-9.41787 -5.1644,-3.97567 -14.82162,-11.49278 -21.48076,-16.71586 -6.65914,-5.22307 -15.38316,-11.97892 -19.37899,-15.01299 -3.99583,-3.03407 -10.12775,-7.65245 -13.60805,-10.25193 l -6.3053,-4.72631 -3.7048,0 -3.70481,0 z m -41.28723,34.47428 -3.77606,1.5291 -3.74043,1.5291 -2.38675,2.95395 -2.38675,2.95394 -0.71246,4.20503 -0.74809,4.20503 1.74553,4.93482 1.70992,4.93483 1.8524,1.11207 c 1.01902,0.61164 8.42689,5.61597 16.4579,11.12074 8.03102,5.50476 21.61723,14.76277 30.1728,20.57335 8.55557,5.8106 21.03474,14.47942 27.75044,19.25278 6.71571,4.77346 13.24469,9.39179 14.49862,10.28668 1.25394,0.89488 4.69177,3.27033 7.62336,5.24759 2.93157,1.97716 10.62618,7.31544 17.09911,11.88529 6.47291,4.56984 12.01213,8.61362 12.32561,9.00084 0.31348,0.38734 2.10892,1.52032 3.98979,2.50217 l 3.41982,1.77236 4.916,0.0695 4.88037,0.0347 3.27733,-1.63335 c 1.79438,-0.90523 4.26435,-2.9237 5.52159,-4.48305 l 2.3155,-2.84969 0.74809,-4.34403 0.74809,-4.34404 -2.24426,-4.90007 -2.20864,-4.93483 -13.3943,-9.31362 c -7.36731,-5.13611 -19.61688,-13.75017 -27.21609,-19.14851 -7.59921,-5.39846 -14.84773,-10.57081 -16.10166,-11.46826 -1.25394,-0.89744 -4.67629,-3.21673 -7.58773,-5.17809 -2.91146,-1.9612 -9.24185,-6.33181 -14.07115,-9.69583 -4.82931,-3.36403 -14.23132,-9.91002 -20.91079,-14.52646 -6.67948,-4.61644 -17.20572,-11.74761 -23.40441,-15.84705 l -11.29254,-7.43699 -4.41727,0 -4.45289,0 z m 69.03766,6.67244 c -0.31348,0 -0.56997,0.25022 -0.56997,0.55604 0,0.30582 0.25649,0.55603 0.56997,0.55603 0.31349,0 0.56997,-0.25021 0.56997,-0.55603 0,-0.30582 -0.25648,-0.55604 -0.56997,-0.55604 z m -106.01449,1.11207 c -0.31349,0 -0.56997,0.25022 -0.56997,0.55604 0,0.30582 0.25648,0.55604 0.56997,0.55604 0.31348,0 0.56997,-0.25022 0.56997,-0.55604 0,-0.30582 -0.25649,-0.55604 -0.56997,-0.55604 z m 109.43432,28.91391 c -0.31349,0 -0.56997,0.25022 -0.56997,0.55604 0,0.30582 0.25648,0.55604 0.56997,0.55604 0.31348,0 0.56997,-0.25022 0.56997,-0.55604 0,-0.30582 -0.25649,-0.55604 -0.56997,-0.55604 z m -215.44882,3.33622 c -0.31349,0 -0.56997,0.25022 -0.56997,0.55604 0,0.30582 0.25648,0.55604 0.56997,0.55604 0.31348,0 0.56997,-0.25022 0.56997,-0.55604 0,-0.30582 -0.25649,-0.55604 -0.56997,-0.55604 z m 88.23854,4.4483 -2.92109,2.84968 -2.9211,2.84969 0.67684,3.54474 0.71246,3.54473 2.60049,2.22415 c 1.43358,1.22328 16.62064,10.48129 33.73512,20.57336 17.11448,10.09206 33.2598,19.53168 35.87252,20.99038 2.61271,1.45871 6.95784,4.08598 9.65387,5.83839 2.69604,1.7524 5.14894,3.19721 5.45034,3.19721 0.3014,0 7.31499,4.05996 15.60294,9.0356 8.28794,4.97564 17.41752,10.50803 20.3052,12.26756 2.88769,1.75963 11.86473,7.12449 19.94896,11.95479 l 14.71237,8.79233 4.20353,0.1042 4.16791,0.1042 2.45799,-3.02345 2.458,-3.0582 -0.67684,-3.33622 -0.71246,-3.37098 -1.95928,-1.77236 c -1.08195,-0.98074 -11.1928,-7.19756 -22.4782,-13.83142 -11.2854,-6.63374 -24.87922,-14.67225 -30.20844,-17.86268 -5.32921,-3.19053 -18.66655,-11.07558 -29.63846,-17.51515 -10.97192,-6.43957 -32.26035,-19.00138 -47.30754,-27.9061 l -27.35858,-16.19445 -3.17046,0 -3.20609,0 z M 480.49408,699.19 c -0.31348,0 -0.56997,0.25021 -0.56997,0.55603 0,0.30582 0.25649,0.55604 0.56997,0.55604 0.31349,0 0.56997,-0.25022 0.56997,-0.55604 0,-0.30582 -0.25648,-0.55603 -0.56997,-0.55603 z m 220.00859,5.56036 c -0.31349,0 -0.56998,0.25022 -0.56998,0.55604 0,0.30582 0.25649,0.55604 0.56998,0.55604 0.31348,0 0.56997,-0.25022 0.56997,-0.55604 0,-0.30582 -0.25649,-0.55604 -0.56997,-0.55604 z m -567.69054,1.66812 1.70991,0 1.70991,0 -0.39185,4.90007 -0.35624,4.90007 1.38931,2.57167 1.42492,2.60642 1.46055,-1.94612 1.46055,-1.91138 1.3893,1.32059 1.35368,1.35534 -1.46054,6.70719 -1.46055,6.74194 2.74298,5.28235 c 1.49676,2.9034 3.3002,6.033 4.02542,6.95046 0.7252,0.91746 2.97846,6.67244 5.02286,12.78885 l 3.74043,11.12073 4.7735,5.07384 c 2.63119,2.79019 5.35743,6.12902 6.05594,7.40223 l 1.28243,2.29366 14.32051,10.87746 c 7.89195,5.97362 15.9933,12.39723 17.98969,14.2832 l 3.63356,3.44048 7.01776,2.78018 7.01776,2.78018 -0.17811,1.11208 -0.17812,1.11207 -3.77605,-0.24327 -3.81168,-0.27802 0.42748,1.21634 0.39185,1.21633 4.52414,1.5291 c 2.48593,0.84395 5.58442,1.55473 6.87527,1.56385 l 2.35113,0 2.20863,1.59861 2.20864,1.5986 -1.70991,1.59861 -1.70991,1.63335 -7.97959,0.45178 -7.97958,0.45178 -6.26968,-0.72979 c -3.44832,-0.40346 -8.57805,-1.35495 -11.39941,-2.08514 -2.82135,-0.73008 -7.18162,-2.0034 -9.68949,-2.84969 -2.50786,-0.84629 -7.12465,-1.79422 -10.25947,-2.08514 l -5.69971,-0.52128 -4.48851,-1.84187 c -2.47275,-1.02411 -7.40579,-3.77738 -10.93631,-6.11641 l -6.41217,-4.27453 -7.94396,-8.3058 -7.97959,-8.34055 -3.52669,-7.05472 c -1.93774,-3.8818 -4.44877,-9.55688 -5.55721,-12.61508 l -1.9949,-5.56037 0.1425,-11.67677 0.14249,-11.67677 1.17556,-8.34055 c 0.63485,-4.5873 1.54129,-11.34315 2.03052,-15.01299 l 0.89058,-6.67244 2.27988,-0.31277 2.31551,-0.31277 2.81423,-5.2476 2.84985,-5.24759 z m 394.41953,9.45262 c -0.31349,0 -0.56997,0.25022 -0.56997,0.55604 0,0.30582 0.25648,0.55603 0.56997,0.55603 0.31348,0 0.56997,-0.25021 0.56997,-0.55603 0,-0.30582 -0.25649,-0.55604 -0.56997,-0.55604 z m 209.74911,14.45695 c -0.31348,0 -0.56997,0.25022 -0.56997,0.55604 0,0.30582 0.25649,0.55604 0.56997,0.55604 0.31349,0 0.56997,-0.25022 0.56997,-0.55604 0,-0.30582 -0.25648,-0.55604 -0.56997,-0.55604 z m -268.70543,1.98088 11.5419,2.88445 11.50628,2.88444 4.84475,2.95394 c 2.66087,1.61362 7.28138,4.72848 10.25947,6.91571 2.97809,2.18722 5.41472,4.37211 5.41472,4.86532 0,0.49331 3.92066,4.7545 8.72767,9.48738 l 8.76329,8.61856 3.17046,6.67245 c 1.75198,3.66984 3.94774,9.54114 4.88038,13.06686 l 1.70991,6.42917 0.78371,9.55688 0.78371,9.55688 -2.42238,-1.25108 c -1.34594,-0.70272 -2.458,-1.77298 -2.458,-2.36315 0,-0.59007 -0.38473,-0.99909 -0.85495,-0.90356 -0.47023,0.0956 -3.90578,-1.18414 -7.62336,-2.84969 l -6.76839,-3.02345 -13.18057,-1.07732 -13.18057,-1.07732 -8.54955,0.69504 -8.54956,0.7298 -8.54956,2.74543 c -4.70224,1.51264 -10.1889,3.73379 -12.18311,4.93483 l -3.63356,2.15464 -3.49107,0.45178 -3.49107,0.41703 -2.9211,3.40572 -2.9211,3.37097 -4.13228,0.76456 -4.13229,0.72979 -2.63611,2.57167 c -1.44042,1.40522 -3.29686,2.94805 -4.13229,3.44048 -0.83543,0.49243 -3.72806,3.88247 -6.44779,7.5065 l -4.95162,6.56818 -1.67428,5.66462 c -0.91718,3.10402 -2.12011,6.16929 -2.67174,6.84621 l -0.99745,1.25108 -0.67684,9.86965 c -0.37122,5.43949 -0.92063,10.27973 -1.21119,10.73846 -0.29056,0.45873 -0.93947,0.83405 -1.42492,0.83405 -0.48547,0 -1.2207,-0.322 -1.63867,-0.72979 -0.41798,-0.40769 -0.77958,-1.78388 -0.81933,-3.05821 l -0.0712,-2.3284 -1.03307,2.53692 -1.06869,2.53692 -3.13484,-0.76455 c -1.7386,-0.40536 -3.81168,-1.20494 -4.59539,-1.80712 l -1.42492,-1.11208 0,-2.64117 0,-2.64118 -1.74554,0 -1.74553,0 -0.64122,-1.94612 c -0.36057,-1.07038 -1.74924,-4.69852 -3.06359,-8.06254 -1.31434,-3.36402 -3.06965,-6.92315 -3.88292,-7.88877 -0.81325,-0.96561 -1.46055,-2.07846 -1.46055,-2.50216 0,-0.4237 -1.34491,-2.74944 -2.99235,-5.1781 l -2.99234,-4.41354 -1.03307,-5.28235 -0.99745,-5.28234 2.24426,-1.70287 2.24426,-1.66811 -2.10177,-5.94264 -2.06614,-5.90789 1.46055,-0.55604 1.42492,-0.52128 0.74809,-7.43699 c 0.41718,-4.08887 1.5465,-10.18937 2.49362,-13.5534 0.94711,-3.36402 3.43673,-9.61943 5.55721,-13.90091 l 3.88293,-7.78452 5.48596,-6.63769 5.48597,-6.63769 7.5521,-6.1859 7.58774,-6.22066 6.09155,-2.88445 c 3.35132,-1.59982 9.4259,-4.04227 13.50118,-5.42135 l 7.40961,-2.50217 14.39176,-0.52128 14.42737,-0.48654 z m 141.49516,0.24327 -3.27733,1.66811 -3.27733,1.63336 -2.24426,3.09295 -2.20863,3.05821 -0.78371,3.50998 -0.78371,3.54473 1.21118,4.30929 1.17557,4.30928 3.13484,2.81494 c 1.73415,1.54433 6.2483,4.58174 10.0101,6.74194 3.76179,2.16032 19.664,11.6428 35.33817,21.09464 15.67416,9.45185 42.60532,25.70286 59.84689,36.10764 17.24158,10.40489 37.76055,22.34383 45.59763,26.516 7.83709,4.17217 18.86604,10.00783 24.50873,12.96261 l 10.25947,5.35185 4.91599,0.0347 4.88038,0.0347 3.27733,-1.63336 3.27733,-1.66811 2.60049,-3.57948 2.63611,-3.57949 0,-5.76888 0,-5.73413 -2.99235,-3.82275 -2.95672,-3.788 -15.81668,-8.20154 c -8.68521,-4.50579 -21.93674,-11.60866 -29.46034,-15.8123 -7.5236,-4.20363 -19.32201,-11.05545 -26.21864,-15.2215 -6.89663,-4.16605 -22.28587,-13.47138 -34.19823,-20.67762 -11.91237,-7.20623 -28.32754,-17.14989 -36.4781,-22.0677 -8.15057,-4.91793 -20.9823,-12.58095 -28.49852,-17.06338 l -13.64367,-8.16668 -4.916,0 -4.91599,0 z m 61.0937,7.78451 c -0.31348,0 -0.56997,0.25022 -0.56997,0.55604 0,0.30582 0.25649,0.55604 0.56997,0.55604 0.31349,0 0.56997,-0.25022 0.56997,-0.55604 0,-0.30582 -0.25648,-0.55604 -0.56997,-0.55604 z m -597.328995,3.33623 c -0.313484,0 -0.569971,0.25021 -0.569971,0.55603 0,0.30582 0.256487,0.55604 0.569971,0.55604 0.313484,0 0.56997,-0.25022 0.56997,-0.55604 0,-0.30582 -0.256486,-0.55603 -0.56997,-0.55603 z m 574.530185,0 c -0.31349,0 -0.56997,0.25021 -0.56997,0.55603 0,0.30582 0.25648,0.55604 0.56997,0.55604 0.31348,0 0.56997,-0.25022 0.56997,-0.55604 0,-0.30582 -0.25649,-0.55603 -0.56997,-0.55603 z m -148.19231,2.22414 c -0.31349,0 -0.56997,0.25022 -0.56997,0.55604 0,0.30582 0.25648,0.55604 0.56997,0.55604 0.31348,0 0.56997,-0.25022 0.56997,-0.55604 0,-0.30582 -0.25649,-0.55604 -0.56997,-0.55604 z m 263.32633,2.22415 c -0.31348,0 -0.56997,0.25022 -0.56997,0.55604 0,0.30582 0.25649,0.55603 0.56997,0.55603 0.31349,0 0.56997,-0.25021 0.56997,-0.55603 0,-0.30582 -0.25648,-0.55604 -0.56997,-0.55604 z m 9.11953,6.67244 c -0.31349,0 -0.56997,0.25022 -0.56997,0.55604 0,0.30582 0.25648,0.55603 0.56997,0.55603 0.31348,0 0.56997,-0.25021 0.56997,-0.55603 0,-0.30582 -0.25649,-0.55604 -0.56997,-0.55604 z m -263.32634,3.33622 c -0.31348,0 -0.56997,0.25022 -0.56997,0.55604 0,0.30582 0.25649,0.55603 0.56997,0.55603 0.31349,0 0.56998,-0.25021 0.56998,-0.55603 0,-0.30582 -0.25649,-0.55604 -0.56998,-0.55604 z m 6.83965,0 c -0.31348,0 -0.56997,0.25022 -0.56997,0.55604 0,0.30582 0.25649,0.55603 0.56997,0.55603 0.31348,0 0.56997,-0.25021 0.56997,-0.55603 0,-0.30582 -0.25649,-0.55604 -0.56997,-0.55604 z M 86.89389,782.21323 89.53,789.58072 c 1.45194,4.0505 4.00503,9.98352 5.66408,13.20587 1.65905,3.22234 5.26251,9.16649 8.01521,13.20587 l 4.98724,7.36749 9.51138,8.79233 9.51138,8.82708 6.48342,3.89226 c 3.57199,2.14074 6.51107,4.20508 6.51903,4.5873 0.008,0.38233 -1.60304,1.00787 -3.56231,1.39009 -1.95926,0.38233 -6.70429,0.6534 -10.54445,0.59079 -3.84018,-0.0623 -8.52106,-0.48236 -10.40196,-0.93831 -1.88091,-0.45584 -5.77923,-1.92923 -8.65643,-3.26672 l -5.2366,-2.43266 -6.62591,-5.80363 -6.66153,-5.76888 -3.63356,-7.81927 -3.669185,-7.78451 -0.641216,-5.73413 -0.641217,-5.69938 1.033071,-7.08946 1.033072,-7.05472 2.422375,-4.93483 2.458,-4.90007 z m 506.2406,1.25108 -2.458,3.0582 -2.458,3.05821 0,2.67592 0,2.67593 2.56487,2.50217 c 1.41068,1.36996 11.28543,7.51984 21.94386,13.6924 10.65842,6.17256 43.74528,25.3689 73.52618,42.64107 29.78091,17.27216 55.68611,32.28327 57.56702,33.3622 1.88089,1.07893 6.98497,4.01369 11.36378,6.53343 l 7.97959,4.5873 3.20608,0 3.20609,0 2.7786,-2.74543 2.81423,-2.71068 -0.0712,-2.57167 c -0.044,-1.40399 -0.42878,-3.37497 -0.85495,-4.41354 l -0.78371,-1.91137 -9.58263,-5.59512 c -5.27254,-3.09001 -9.72949,-5.62988 -9.90323,-5.62988 -0.17375,0 -15.61319,-8.94674 -34.3051,-19.87831 -18.69192,-10.93168 -42.44857,-24.7785 -52.79351,-30.75578 -10.34495,-5.97739 -20.34795,-11.71453 -22.22885,-12.75409 -1.8809,-1.03968 -12.14038,-7.00251 -22.79881,-13.27538 l -19.379,-11.39875 -4.66663,-0.59079 -4.66663,-0.55604 z m 162.08534,10.25193 c -0.31349,0 -0.56997,0.25022 -0.56997,0.55604 0,0.30582 0.25648,0.55603 0.56997,0.55603 0.31348,0 0.56997,-0.25021 0.56997,-0.55603 0,-0.30582 -0.25649,-0.55604 -0.56997,-0.55604 z m -523.23285,2.22415 c -0.31348,0 -0.56997,0.25021 -0.56997,0.55603 0,0.30582 0.25649,0.55604 0.56997,0.55604 0.31348,0 0.56997,-0.25022 0.56997,-0.55604 0,-0.30582 -0.25649,-0.55603 -0.56997,-0.55603 z m 13.67929,10.00866 c -0.31348,0 -0.56997,0.25021 -0.56997,0.55603 0,0.30582 0.25649,0.55604 0.56997,0.55604 0.31348,0 0.56997,-0.25022 0.56997,-0.55604 0,-0.30582 -0.25649,-0.55603 -0.56997,-0.55603 z m 506.13373,0 c -0.31348,0 -0.56997,0.25021 -0.56997,0.55603 0,0.30582 0.25649,0.55604 0.56997,0.55604 0.31349,0 0.56997,-0.25022 0.56997,-0.55604 0,-0.30582 -0.25648,-0.55603 -0.56997,-0.55603 z m -508.41361,1.11207 c -0.31348,0 -0.56997,0.25022 -0.56997,0.55604 0,0.30582 0.25649,0.55603 0.56997,0.55603 0.31348,0 0.56997,-0.25021 0.56997,-0.55603 0,-0.30582 -0.25649,-0.55604 -0.56997,-0.55604 z m 428.61775,0 c -0.31348,0 -0.56997,0.25022 -0.56997,0.55604 0,0.30582 0.25649,0.55603 0.56997,0.55603 0.31349,0 0.56997,-0.25021 0.56997,-0.55603 0,-0.30582 -0.25648,-0.55604 -0.56997,-0.55604 z m 9.11953,4.44829 c -0.31348,0 -0.56997,0.25022 -0.56997,0.55604 0,0.30582 0.25649,0.55604 0.56997,0.55604 0.31348,0 0.56997,-0.25022 0.56997,-0.55604 0,-0.30582 -0.25649,-0.55604 -0.56997,-0.55604 z m -63.83669,7.78452 c -0.31348,0 -0.56997,0.25022 -0.56997,0.55604 0,0.30582 0.25649,0.55603 0.56997,0.55603 0.31349,0 0.56997,-0.25021 0.56997,-0.55603 0,-0.30582 -0.25648,-0.55604 -0.56997,-0.55604 z m 80.9358,1.11207 c -0.31348,0 -0.56997,0.25022 -0.56997,0.55604 0,0.30582 0.25649,0.55604 0.56997,0.55604 0.31349,0 0.56997,-0.25022 0.56997,-0.55604 0,-0.30582 -0.25648,-0.55604 -0.56997,-0.55604 z m -524.80026,0.86881 -1.49617,0.59079 -1.49617,0.59079 2.17301,0.0695 2.20863,0.1042 -0.71246,-0.66029 -0.67684,-0.69505 z m 245.51476,11.364 c -0.31349,0 -0.56997,0.25022 -0.56997,0.55604 0,0.30582 0.25648,0.55603 0.56997,0.55603 0.31348,0 0.56997,-0.25021 0.56997,-0.55603 0,-0.30582 -0.25649,-0.55604 -0.56997,-0.55604 z m 82.46759,1.98088 8.33582,2.50217 8.37144,2.53691 6.26968,5.56037 6.26967,5.56037 -0.28498,1.35534 -0.32061,1.35534 4.66663,9.86965 c 2.5724,5.43137 5.76445,12.62203 7.08901,15.98605 l 2.42237,6.11641 0,6.1164 c -0.006,3.36402 -0.4134,8.53361 -0.89058,11.46826 l -0.85495,5.3171 -9.83199,9.97391 -9.79637,10.00866 -8.58518,4.13552 -8.58518,4.13553 -12.57497,0.24326 -12.6106,0.27802 -4.06104,-1.5291 c -2.23719,-0.83617 -7.07545,-2.92236 -10.75819,-4.62205 -3.68274,-1.69959 -8.94117,-4.54227 -11.64877,-6.32492 l -4.91599,-3.23197 0.67684,-1.04256 0.67684,-1.07733 -1.46055,0.31277 -1.42493,0.31278 -2.74298,-6.56819 c -1.49826,-3.60467 -3.18725,-9.10944 -3.77605,-12.23281 -0.58882,-3.12337 -1.37212,-8.94218 -1.74554,-12.92785 l -0.71246,-7.22848 1.81678,-6.9157 1.81678,-6.91571 2.77861,-5.3171 2.7786,-5.28235 5.8422,-5.76888 c 3.21109,-3.17686 7.23893,-6.49963 8.94141,-7.36749 1.70247,-0.86797 5.66408,-3.00443 8.79892,-4.76106 l 5.6997,-3.19721 12.1475,-0.41703 12.18311,-0.41703 z m 233.50976,11.01648 0.81933,1.28583 c 0.44736,0.70617 1.04158,1.28584 1.31806,1.28584 0.27648,0 0.49872,-0.21674 0.49872,-0.48653 0,-0.26968 -0.59421,-0.84935 -1.31805,-1.28584 l -1.31806,-0.7993 z m 19.16525,10.35618 c -0.31348,0 -0.56997,0.25022 -0.56997,0.55604 0,0.30582 0.25649,0.55604 0.56997,0.55604 0.31349,0 0.56998,-0.25022 0.56998,-0.55604 0,-0.30582 -0.25649,-0.55604 -0.56998,-0.55604 z m -18.23905,3.33622 c -0.31348,0 -0.56997,0.25022 -0.56997,0.55604 0,0.30582 0.25649,0.55604 0.56997,0.55604 0.31348,0 0.56997,-0.25022 0.56997,-0.55604 0,-0.30582 -0.25649,-0.55604 -0.56997,-0.55604 z m -122.22303,1.11208 -3.8473,2.53691 -3.8473,2.53692 -2.20864,5.21285 -2.20863,5.21284 1.46055,4.72631 1.46055,4.69156 2.99234,2.67593 3.02797,2.67593 83.21568,40.9382 83.21568,40.97295 4.916,0.0695 4.88037,0.0695 3.09921,-1.56385 c 1.69447,-0.85485 3.91781,-2.48126 4.95162,-3.61424 l 1.88803,-2.05038 1.35368,-4.48305 1.35368,-4.5178 -1.24681,-4.44829 -1.21119,-4.48305 -2.63611,-2.39791 -2.60049,-2.3979 -34.16261,-16.85487 C 738.67344,916.6807 700.8942,898.15006 673.50032,884.76725 l -49.80117,-24.3266 -5.02286,0 -5.05849,0 z m -306.39472,1.11207 c -0.31349,0 -0.56997,0.25022 -0.56997,0.55604 0,0.30582 0.25648,0.55603 0.56997,0.55603 0.31348,0 0.56997,-0.25021 0.56997,-0.55603 0,-0.30582 -0.25649,-0.55604 -0.56997,-0.55604 z m 436.59734,1.11207 c -0.31349,0 -0.56997,0.25022 -0.56997,0.55604 0,0.30582 0.25648,0.55604 0.56997,0.55604 0.31348,0 0.56997,-0.25022 0.56997,-0.55604 0,-0.30582 -0.25649,-0.55604 -0.56997,-0.55604 z m -295.24468,3.33622 c -0.31348,0 -0.56997,0.25022 -0.56997,0.55604 0,0.30582 0.25649,0.55604 0.56997,0.55604 0.31348,0 0.56997,-0.25022 0.56997,-0.55604 0,-0.30582 -0.25649,-0.55604 -0.56997,-0.55604 z m 323.7432,0 c -0.31349,0 -0.56997,0.25022 -0.56997,0.55604 0,0.30582 0.25648,0.55604 0.56997,0.55604 0.31348,0 0.56997,-0.25022 0.56997,-0.55604 0,-0.30582 -0.25649,-0.55604 -0.56997,-0.55604 z m -532.56611,10.00866 -1.88803,2.01564 -1.8524,2.01563 -0.67684,3.26672 -0.67684,3.30146 2.45799,3.02345 2.458,3.05821 1.56742,0 c 0.87395,0 8.67106,2.74026 17.31285,6.1164 8.6418,3.37614 16.73576,6.60271 17.98969,7.15897 1.25394,0.55615 6.64016,2.78386 11.96938,4.93483 5.32921,2.15108 21.23142,8.43875 35.33817,13.97042 l 25.64867,10.04341 3.70481,0.0347 3.7048,0 2.24426,-2.18939 2.24426,-2.1894 0.74809,-2.91919 0.74808,-2.91919 -2.24426,-2.9192 -2.24425,-2.95394 -4.4529,-1.28584 c -2.44781,-0.71239 -10.86507,-3.89631 -18.70215,-7.05471 -7.83708,-3.15829 -22.96982,-9.16593 -33.62826,-13.34488 -10.65843,-4.17895 -27.07362,-10.62303 -36.4781,-14.3527 l -17.09912,-6.7767 -4.09666,-0.0347 -4.09666,0 z m 528.00634,1.11208 c -0.31348,0 -0.56997,0.25021 -0.56997,0.55603 0,0.30582 0.25649,0.55604 0.56997,0.55604 0.31349,0 0.56998,-0.25022 0.56998,-0.55604 0,-0.30582 -0.25649,-0.55603 -0.56998,-0.55603 z m -618.06167,14.45695 -1.88802,2.01564 -1.85241,2.01563 -0.60559,3.26671 -0.64122,3.26672 1.46055,2.67593 c 0.79992,1.46916 2.23001,3.06904 3.17046,3.57948 0.94044,0.51045 17.35562,6.40594 36.47811,13.10162 19.12247,6.69568 43.74524,15.43936 54.71716,19.39178 10.97191,3.95231 21.2314,7.70367 22.79881,8.34055 1.56742,0.63688 4.26766,1.17752 6.02032,1.21633 l 3.20608,0.0695 2.9211,-2.84968 2.9211,-2.84969 -0.71247,-3.54474 -0.74808,-3.54473 -1.95928,-1.80712 -1.95927,-1.84187 -9.11953,-3.40573 c -5.01574,-1.88307 -24.25226,-8.71448 -42.74778,-15.18675 -18.4955,-6.47227 -34.91068,-12.28719 -36.4781,-12.92785 -1.56742,-0.64078 -7.46663,-2.72247 -13.10932,-4.58731 -5.64271,-1.86483 -11.08643,-4.06946 -12.07625,-4.90007 l -1.78116,-1.49435 -4.02542,0 -3.98979,0 z m 621.4815,7.78452 c -0.31349,0 -0.56997,0.25021 -0.56997,0.55603 0,0.30582 0.25648,0.55604 0.56997,0.55604 0.31348,0 0.56997,-0.25022 0.56997,-0.55604 0,-0.30582 -0.25649,-0.55603 -0.56997,-0.55603 z m -17.09912,1.11207 c -0.31348,0 -0.56997,0.25022 -0.56997,0.55604 0,0.30582 0.25649,0.55603 0.56997,0.55603 0.31349,0 0.56998,-0.25021 0.56998,-0.55603 0,-0.30582 -0.25649,-0.55604 -0.56998,-0.55604 z m -112.85414,8.89659 c -0.31348,0 -0.56997,0.25021 -0.56997,0.55603 0,0.30582 0.25649,0.55604 0.56997,0.55604 0.31349,0 0.56997,-0.25022 0.56997,-0.55604 0,-0.30582 -0.25648,-0.55603 -0.56997,-0.55603 z m -492.45444,1.11207 c -0.31348,0 -0.56997,0.25022 -0.56997,0.55604 0,0.30582 0.25649,0.55603 0.56997,0.55603 0.31348,0 0.56997,-0.25021 0.56997,-0.55603 0,-0.30582 -0.25649,-0.55604 -0.56997,-0.55604 z m 458.61245,6.67244 -3.59794,0.0347 -3.59794,0.0347 -1.99489,1.45959 -1.9949,1.49435 -0.67684,3.37097 -0.67684,3.33622 1.35368,2.46742 1.35368,2.50216 34.37634,16.40308 c 18.90877,9.02804 42.07096,20.05419 51.47545,24.50037 9.4045,4.44618 24.38782,11.52245 33.30765,15.70805 l 16.20853,7.6107 4.77351,3.3363 4.7735,3.3709 3.09921,0 3.13484,0 2.38675,-1.9461 2.42237,-1.9461 0.67684,-3.4405 0.67684,-3.4752 -3.59793,-3.9965 -3.59794,-3.9966 -11.61315,-5.5256 c -6.38311,-3.02303 -26.4894,-12.61094 -44.67143,-21.30302 -18.18202,-8.69196 -44.51932,-21.24799 -58.52884,-27.90609 l -25.47055,-12.0938 z m -128.02961,13.34488 c -0.31348,0 -0.56997,0.25022 -0.56997,0.55604 0,0.30582 0.25649,0.55604 0.56997,0.55604 0.31349,0 0.56997,-0.25022 0.56997,-0.55604 0,-0.30582 -0.25648,-0.55604 -0.56997,-0.55604 z m 232.54793,14.45696 c -0.31348,0 -0.56997,0.25021 -0.56997,0.55603 0,0.30582 0.25649,0.55604 0.56997,0.55604 0.31349,0 0.56997,-0.25022 0.56997,-0.55604 0,-0.30582 -0.25648,-0.55603 -0.56997,-0.55603 z m 33.05829,14.45695 c -0.31349,0 -0.56997,0.25022 -0.56997,0.55604 0,0.30582 0.25648,0.55604 0.56997,0.55604 0.31347,0 0.56997,-0.25022 0.56997,-0.55604 0,-0.30582 -0.2565,-0.55604 -0.56997,-0.55604 z m -129.73952,7.78452 -4.84475,2.74543 -4.80912,2.78018 -1.35368,5.45609 -1.35368,5.4561 1.46055,4.7263 1.46055,4.7264 4.48851,3.1624 c 2.4767,1.7503 4.89728,3.1972 5.3791,3.1972 0.48182,0 8.22064,3.2755 17.20598,7.298 8.98536,4.0226 17.88996,7.9858 19.77085,8.7923 1.8809,0.8067 11.88389,5.2259 22.22885,9.8002 10.34494,4.5744 22.56883,9.9228 27.18046,11.8852 4.61164,1.9624 12.30625,5.3549 17.09911,7.5413 4.79286,2.1864 17.19176,7.5997 27.5367,12.059 l 18.80902,8.1321 3.74043,0.034 3.74043,0.069 3.77606,-1.5291 3.77605,-1.5638 2.31551,-3.1625 2.3155,-3.1972 0.78371,-3.51 0.78371,-3.5447 -1.24681,-4.4831 -1.24681,-4.483 -3.88292,-3.093 -3.88293,-3.1277 -11.75564,-4.9 c -6.46487,-2.7045 -16.11592,-6.9073 -21.44513,-9.3136 -5.32923,-2.4063 -17.12763,-7.5882 -26.21864,-11.5378 -9.09102,-3.9497 -18.83752,-8.2189 -21.65888,-9.4874 -2.82135,-1.2684 -12.31137,-5.4555 -21.0889,-9.2789 -8.77754,-3.8234 -20.06297,-8.81 -25.0787,-11.08594 -5.01573,-2.27586 -12.63836,-5.56465 -16.95662,-7.33273 l -7.87272,-3.23191 -4.59539,0 -4.55976,0 z m 147.97857,1.11207 c -0.31348,0 -0.56997,0.25022 -0.56997,0.55604 0,0.30582 0.25649,0.55603 0.56997,0.55603 0.31349,0 0.56997,-0.25021 0.56997,-0.55603 0,-0.30582 -0.25648,-0.55604 -0.56997,-0.55604 z m -74.09615,12.23283 c -0.31349,0 -0.56997,0.2502 -0.56997,0.556 0,0.3058 0.25648,0.5561 0.56997,0.5561 0.31348,0 0.56997,-0.2503 0.56997,-0.5561 0,-0.3058 -0.25649,-0.556 -0.56997,-0.556 z m 99.17485,55.6037 c -0.31348,0 -0.56997,0.2502 -0.56997,0.556 0,0.3058 0.25649,0.556 0.56997,0.556 0.31348,0 0.56997,-0.2502 0.56997,-0.556 0,-0.3058 -0.25649,-0.556 -0.56997,-0.556 z m -83.78565,6.2901 -0.74809,0.7645 -0.78371,0.7299 1.5318,0 1.53179,0 -0.78371,-0.7299 -0.74808,-0.7645 z m 81.50577,19.2876 c -0.31349,0 -0.56997,0.2502 -0.56997,0.556 0,0.3058 0.25648,0.556 0.56997,0.556 0.31348,0 0.56997,-0.2502 0.56997,-0.556 0,-0.3058 -0.25649,-0.556 -0.56997,-0.556 z"
       id="path3175"
       inkscape:connector-curvature="0" />
  </g>
</svg>
